<?xml version="1.0" standalone="no"?>
<!DOCTYPE svg PUBLIC "-//W3C//DTD SVG 20010904//EN"
 "http://www.w3.org/TR/2001/REC-SVG-20010904/DTD/svg10.dtd">
<svg version="1.0" xmlns="http://www.w3.org/2000/svg"
 width="690.000000pt" height="594.000000pt" viewBox="0 0 690.000000 594.000000"
 preserveAspectRatio="xMidYMid meet">

<g transform="translate(0.000000,594.000000) scale(0.100000,-0.100000)"
fill="#000000" stroke="none">
<path d="M1535 5896 c-104 -17 -169 -38 -280 -92 -171 -84 -327 -228 -420
-386 -50 -85 -51 -86 -134 -128 -238 -118 -439 -333 -545 -580 -20 -47 -38
-72 -65 -91 -74 -51 -76 -63 -79 -432 -4 -355 1 -408 45 -465 43 -57 90 -72
231 -72 130 0 160 8 210 54 56 50 57 57 60 396 4 359 0 425 -31 472 -28 41
-93 75 -163 84 l-54 6 32 57 c51 91 112 172 183 243 65 65 171 146 179 137 3
-3 0 -25 -6 -49 -8 -32 -11 -554 -9 -1830 l2 -1786 -64 -46 c-76 -55 -138
-142 -167 -235 -58 -189 22 -414 185 -519 85 -54 136 -67 288 -73 l137 -6 3
-195 c2 -178 4 -199 24 -235 24 -46 54 -75 103 -101 32 -17 62 -19 360 -19
l326 0 49 26 c32 16 61 41 80 70 l30 44 3 207 3 208 1429 0 1428 0 4 -207 c4
-230 7 -243 72 -301 56 -49 104 -54 451 -50 300 3 311 4 352 26 24 12 55 41
70 64 l28 41 3 214 3 213 84 0 c194 0 360 108 432 279 24 59 27 78 28 187 l0
121 -39 76 c-35 71 -63 103 -149 174 l-27 23 0 1792 c-1 986 -5 1813 -10 1838
-4 25 -7 47 -5 49 6 6 75 -40 136 -90 72 -61 178 -193 224 -280 l35 -68 -55
-6 c-67 -9 -132 -40 -159 -78 -20 -27 -21 -43 -24 -395 -2 -202 0 -381 3 -399
8 -43 50 -92 100 -114 31 -15 65 -19 156 -19 131 0 170 9 217 54 57 53 62 90
62 451 0 374 -5 403 -71 457 -28 24 -54 62 -90 134 -124 254 -304 436 -546
553 -59 29 -73 41 -94 80 -40 75 -131 192 -204 260 -124 116 -261 191 -435
239 l-95 27 -1875 2 c-1464 1 -1893 -2 -1955 -11z m2730 -410 c17 -2 82 -7
145 -10 477 -29 1113 -97 1169 -126 43 -21 72 -52 96 -99 16 -32 17 -110 16
-1119 l-2 -1086 -22 -39 c-12 -22 -39 -54 -60 -71 -38 -31 -41 -31 -168 -34
l-129 -4 0 197 c0 229 -12 297 -72 425 -34 71 -56 100 -132 176 -72 71 -109
99 -175 132 -46 23 -90 42 -97 42 -22 0 -17 10 31 61 66 71 88 127 89 224 0
69 -5 89 -31 145 -47 101 -116 158 -222 186 -114 29 -227 -1 -309 -82 -69 -70
-94 -127 -100 -229 -5 -107 20 -176 89 -245 42 -42 47 -51 32 -56 -120 -39
-214 -95 -288 -173 -60 -62 -121 -152 -136 -201 -7 -19 -15 -40 -20 -46 -25
-31 -41 -150 -46 -346 -4 -143 -9 -208 -17 -208 -157 -6 -2543 3 -2559 9 -38
15 -86 61 -110 105 l-22 41 0 1080 c0 1035 1 1081 19 1115 39 74 82 105 169
120 100 18 584 69 802 85 121 9 270 19 330 24 61 4 168 9 240 10 71 1 132 5
135 8 6 6 1306 -4 1355 -11z m486 -2057 c163 -35 322 -165 386 -316 24 -58 43
-134 43 -175 0 -37 -1 -38 -35 -38 -33 0 -35 2 -35 33 0 46 -23 124 -53 182
-134 263 -491 337 -727 152 -94 -74 -163 -197 -177 -319 -6 -47 -7 -48 -39
-48 -33 0 -34 2 -34 38 0 88 68 241 143 323 73 79 196 150 302 172 41 9 176 7
226 -4z m-3301 -1316 c206 -33 471 -138 615 -244 87 -64 110 -94 110 -146 0
-38 -5 -49 -29 -68 -53 -42 -96 -48 -398 -52 -302 -5 -433 4 -495 33 -59 29
-64 54 -57 282 3 108 7 203 10 210 4 14 94 9 244 -15z m4262 -180 c4 -237 3
-246 -29 -278 -47 -46 -81 -50 -473 -50 -320 0 -372 2 -422 18 -101 31 -128
102 -65 173 110 126 470 274 797 327 14 2 62 5 107 6 l82 1 3 -197z m-1234
-165 l3 -118 -1031 0 -1030 0 0 120 0 120 1028 -2 1027 -3 3 -117z"/>
</g>
</svg>
